<?xml version="1.0" standalone="no"?>
<!DOCTYPE svg PUBLIC "-//W3C//DTD SVG 20010904//EN"
 "http://www.w3.org/TR/2001/REC-SVG-20010904/DTD/svg10.dtd">
<svg version="1.0" xmlns="http://www.w3.org/2000/svg"
 width="1080.000000pt" height="1080.000000pt" viewBox="0 0 1080.000000 1080.000000"
 preserveAspectRatio="xMidYMid meet">
<metadata>
Created by potrace 1.11, written by Peter Selinger 2001-2013
</metadata>
<g transform="translate(0.000000,1080.000000) scale(0.100000,-0.100000)"
fill="#000000" stroke="none">
<path d="M4539 8186 c-435 -77 -767 -398 -850 -821 -20 -102 -18 -312 4 -408
92 -396 380 -689 771 -786 l70 -17 -137 -72 c-649 -341 -1064 -712 -1242
-1107 -98 -217 -135 -390 -135 -630 0 -221 33 -404 105 -582 313 -776 1205
-1162 2029 -876 195 68 411 186 586 321 86 67 309 283 392 381 l46 53 35 -38
c19 -22 117 -138 218 -259 101 -122 249 -299 328 -394 l145 -172 130 2 c129 2
157 5 140 18 -5 3 -31 33 -59 66 -27 33 -62 74 -78 91 -15 17 -51 60 -80 95
-74 92 -221 269 -297 359 -90 106 -235 280 -297 357 l-52 65 23 37 c179 283
307 776 341 1312 l7 106 -47 6 c-26 4 -76 7 -110 7 l-62 0 -7 -107 c-22 -338
-90 -703 -172 -918 -32 -85 -40 -103 -90 -201 -62 -122 -90 -164 -210 -315
-195 -244 -483 -481 -709 -584 -121 -55 -152 -67 -241 -95 -160 -50 -254 -63
-434 -63 -246 0 -432 42 -635 144 -142 73 -235 140 -350 254 -150 149 -244
301 -311 500 -84 251 -87 584 -8 822 27 81 94 221 140 295 96 153 300 363 484
499 221 163 428 283 871 505 291 145 329 167 479 280 166 125 274 249 349 400
160 326 136 723 -63 1017 -193 286 -488 452 -821 462 -74 3 -149 -1 -196 -9z
m291 -220 c109 -18 185 -46 288 -108 301 -181 450 -542 363 -883 -74 -289
-302 -517 -587 -586 -113 -28 -278 -30 -374 -5 -298 77 -506 273 -595 558 -87
279 -6 589 209 803 188 186 433 264 696 221z"/>
<path d="M7812 3620 c-73 -26 -111 -51 -169 -113 -132 -139 -160 -328 -73
-497 32 -64 129 -156 194 -186 220 -100 472 -12 577 202 33 66 34 73 34 184 0
110 -1 118 -33 182 -53 108 -140 188 -245 227 -76 28 -209 29 -285 1z"/>
</g>
</svg>
